<?xml version="1.0" encoding="UTF-8"?>
<svg xmlns="http://www.w3.org/2000/svg" width="800" height="989" viewBox="0 0 800 989">
<svg x="248.0" y="30" width="280" height="509" viewBox="62.03 48 320.97 583">
<g transform="translate(0.000000,701.000000) scale(0.100000,-0.100000)" fill="#ffffff" stroke="none">
<path d="M2140 6341 l0 -188 -62 -18 c-35 -9 -66 -19 -71 -22 -4 -2 5 -20 20
-39 27 -36 31 -37 96 -18 16 5 17 -7 17 -159 l0 -165 -112 -89 c-62 -49 -222
-176 -355 -282 l-242 -192 -400 -105 c-221 -57 -403 -104 -406 -104 -14 0 1
-23 75 -115 l80 -100 0 -1577 0 -1578 40 0 40 0 0 1564 c0 861 4 1567 8 1570
8 4 1856 476 1867 476 3 0 5 -922 5 -2050 l0 -2050 40 0 40 0 2 2024 3 2025
392 -382 393 -382 0 -1842 0 -1843 40 0 40 0 0 1839 0 1839 70 52 c39 29 70
53 70 55 0 2 -215 209 -477 461 -263 251 -504 482 -536 513 l-57 56 -111 -29
c-110 -28 -110 -28 -132 -9 -12 11 -84 73 -159 138 l-138 118 0 177 0 178 65
17 c36 10 65 23 65 29 -1 6 -11 24 -24 40 -22 27 -26 28 -56 17 -18 -6 -37
-11 -41 -11 -5 0 -9 79 -9 175 l0 175 -40 0 -40 0 0 -189z m174 -798 c69 -59
123 -109 122 -110 -1 -2 -175 -48 -387 -103 -211 -55 -391 -103 -399 -106 -13
-4 -13 -3 0 10 39 39 516 415 527 416 7 0 69 -48 137 -107z m410 -203 l7 -55
-938 -238 c-516 -130 -943 -237 -949 -237 -19 0 -87 94 -72 99 7 3 445 118
973 256 616 161 962 247 966 240 4 -5 10 -35 13 -65z m619 -499 c196 -188 357
-345 357 -348 0 -8 -33 -32 -43 -33 -5 0 -197 185 -428 411 -397 389 -419 413
-419 447 l0 36 88 -85 c48 -47 248 -239 445 -428z"/>
<path d="M1915 4826 c-51 -22 -97 -68 -121 -121 l-24 -50 0 -454 c0 -422 1
-453 17 -447 9 4 99 28 200 53 l183 45 0 426 c0 412 -1 427 -21 469 -38 80
-148 117 -234 79z m157 -75 l33 -29 0 -413 0 -413 -130 -33 c-71 -18 -134 -33
-138 -33 -4 0 -6 188 -5 418 l3 418 26 41 c51 76 151 97 211 44z"/>
<path d="M1440 4688 c-42 -26 -61 -45 -82 -87 l-28 -53 0 -458 0 -458 158 40
c86 21 174 44 195 49 l38 10 -3 444 c-3 432 -4 444 -24 472 -61 82 -159 98
-254 41z m191 -57 l29 -30 -2 -412 -3 -412 -125 -33 c-69 -19 -128 -34 -132
-34 -5 0 -8 188 -8 419 l0 418 23 34 c35 52 82 79 139 79 41 0 54 -5 79 -29z"/>
<path d="M2998 4682 l-28 -17 0 -431 0 -431 105 -97 105 -98 0 494 0 493 -25
38 c-44 63 -104 83 -157 49z m98 -73 l29 -30 3 -415 c2 -228 -1 -414 -6 -414
-4 0 -27 19 -50 43 l-42 43 0 402 c0 382 1 402 18 402 10 0 31 -14 48 -31z"/>
<path d="M3290 4513 c-8 -3 -23 -12 -32 -21 -17 -14 -18 -49 -18 -461 l0 -446
105 -98 105 -98 0 509 0 509 -22 33 c-38 56 -99 88 -138 73z m71 -82 l29 -29
0 -438 0 -438 -45 44 -45 44 0 423 c0 467 -2 456 61 394z"/>
<path d="M1960 3660 c-78 -14 -156 -83 -178 -159 -8 -26 -12 -176 -12 -490 0
-423 1 -451 18 -450 9 0 98 22 197 47 l180 47 3 438 c2 420 1 439 -18 476 -35
69 -110 105 -190 91z m102 -74 c46 -28 48 -50 48 -480 0 -223 -1 -406 -3 -406
-2 0 -64 -16 -138 -35 -74 -19 -135 -35 -136 -35 -2 0 -3 188 -3 418 0 383 2
420 19 457 22 49 48 73 98 91 39 14 84 10 115 -10z"/>
<path d="M3020 3553 c-8 -3 -23 -12 -32 -21 -17 -14 -18 -49 -18 -466 l0 -451
105 -105 105 -105 -2 530 c-3 512 -4 531 -23 557 -11 15 -38 37 -61 48 -42 21
-49 22 -74 13z m59 -69 c49 -35 51 -52 51 -509 0 -234 -3 -425 -7 -425 -4 0
-27 19 -50 42 l-43 42 0 433 c0 463 -1 452 49 417z"/>
<path d="M1502 3540 c-49 -11 -108 -55 -139 -102 l-28 -42 -3 -478 c-2 -328 1
-478 8 -478 6 0 94 21 195 46 l185 46 0 445 c0 363 -3 449 -14 471 -22 42 -67
79 -111 91 -45 12 -47 12 -93 1z m92 -64 c68 -28 66 -15 66 -478 l0 -417 -42
-11 c-77 -20 -193 -51 -210 -56 -17 -5 -18 20 -18 423 0 416 1 429 21 462 26
43 56 68 94 80 42 13 51 13 89 -3z"/>
<path d="M3262 3354 l-22 -15 0 -472 0 -472 105 -105 105 -105 0 540 c0 521
-1 541 -20 573 -39 63 -119 90 -168 56z m103 -69 l25 -24 0 -468 0 -467 -45
44 -45 44 0 448 c0 445 0 448 20 448 12 0 32 -11 45 -25z"/>
<path d="M1719 2355 c-130 -47 -226 -148 -263 -274 -14 -46 -16 -121 -16 -483
0 -411 1 -428 19 -428 10 0 163 22 341 50 178 28 324 50 326 50 2 0 4 190 4
423 0 369 -2 430 -17 473 -32 94 -84 151 -175 189 -46 18 -168 19 -219 0z
m209 -61 c47 -19 88 -58 115 -109 21 -39 22 -52 25 -452 2 -227 -1 -413 -5
-413 -4 0 -133 -20 -286 -43 l-278 -43 3 415 3 416 29 55 c37 71 114 144 179
169 64 24 163 27 215 5z"/>
<path d="M3077 2196 c-64 -63 -67 -88 -67 -485 l0 -356 178 -175 c97 -97 192
-189 210 -205 l33 -30 -3 465 c-4 402 -6 473 -21 525 -36 125 -113 247 -178
280 -15 8 -48 15 -73 15 -38 0 -51 -5 -79 -34z m144 -47 c35 -25 85 -103 109
-171 36 -103 41 -172 38 -536 l-3 -353 -152 147 -153 146 0 296 c0 163 5 326
11 361 20 128 71 165 150 110z"/>
</g>
</svg>
<svg x="25.0" y="564" width="750" height="385" viewBox="408 257.9 769.82 394.959">
<g transform="translate(0.000000,701.000000) scale(0.100000,-0.100000)" fill="#ffffff" stroke="none">
<path d="M7631 4359 c35 -40 78 -88 96 -108 17 -20 35 -33 39 -28 4 4 -6 51
-22 105 l-29 97 -74 3 -74 3 64 -72z"/>
<path d="M4223 4407 c-91 -6 -143 -14 -143 -21 0 -6 24 -20 52 -31 34 -13 57
-29 65 -45 10 -19 13 -125 13 -428 l0 -404 -28 -28 c-16 -16 -45 -32 -65 -35
-22 -4 -37 -13 -37 -21 0 -11 36 -14 200 -14 164 0 200 3 200 14 0 8 -15 17
-35 20 -19 4 -47 18 -62 31 l-28 23 -3 192 c-2 106 0 190 5 188 146 -73 255
-74 400 -3 185 91 237 286 114 426 -106 121 -302 162 -648 136z m402 -66 c105
-47 154 -122 155 -234 0 -80 -15 -120 -67 -177 -79 -89 -208 -108 -325 -49
l-38 19 0 230 0 229 23 4 c12 3 63 4 112 3 68 -2 102 -8 140 -25z"/>
<path d="M5311 4027 c-254 -547 -294 -617 -356 -617 -16 0 -25 -6 -25 -15 0
-13 20 -15 121 -15 91 0 120 3 117 12 -3 7 -15 15 -29 18 -21 6 -24 11 -23 56
0 27 9 67 20 89 l19 40 181 3 181 2 28 -75 c26 -72 26 -77 10 -95 -9 -10 -26
-20 -38 -22 -11 -2 -22 -9 -25 -15 -3 -10 65 -13 317 -13 279 0 321 2 321 15
0 9 -9 15 -25 15 -14 0 -37 11 -50 25 -24 23 -25 28 -25 179 l0 156 58 -26
c81 -35 115 -74 180 -205 83 -165 69 -159 353 -159 197 0 229 2 229 15 0 9 -9
15 -24 15 -13 0 -35 9 -50 21 l-26 20 0 160 0 159 58 -26 c80 -35 109 -67 177
-201 75 -147 95 -163 201 -163 59 0 74 3 74 15 0 10 -10 15 -29 15 -37 0 -68
38 -101 125 -34 89 -57 131 -90 168 l-30 34 49 21 c58 24 124 81 141 122 19
47 9 149 -19 189 -62 87 -183 134 -351 135 -144 1 -302 -13 -297 -27 2 -6 16
-14 31 -18 16 -4 37 -16 47 -25 18 -16 19 -36 19 -350 l0 -333 -26 -20 c-35
-28 -114 -29 -138 -2 -9 10 -39 69 -66 132 -28 62 -64 127 -80 145 l-31 31 49
20 c59 25 125 82 142 123 19 47 9 149 -19 189 -62 87 -183 134 -351 135 -144
1 -302 -13 -297 -27 2 -6 16 -14 31 -18 16 -4 37 -16 47 -25 18 -16 19 -36 19
-350 l0 -333 -26 -20 c-49 -38 -157 -21 -184 29 -6 11 -74 181 -151 377 -77
197 -143 361 -147 365 -4 4 -45 -75 -91 -175z m929 120 c54 -23 91 -57 111
-101 38 -84 14 -188 -57 -242 -34 -26 -45 -29 -113 -29 -50 0 -89 6 -113 17
l-38 17 0 175 c0 158 2 175 18 180 31 9 156 -2 192 -17z m736 -10 c58 -29 78
-50 99 -100 33 -81 8 -181 -61 -233 -34 -26 -45 -29 -113 -29 -50 0 -89 6
-113 17 l-38 17 0 175 c0 201 -8 187 106 181 51 -2 85 -10 120 -28z m-1547
-315 c39 -100 71 -184 71 -187 0 -3 -72 -5 -160 -5 -98 0 -160 4 -160 10 0 19
169 375 175 368 1 -1 35 -85 74 -186z"/>
<path d="M7600 4199 c-139 -24 -276 -129 -320 -247 -27 -70 -36 -190 -21 -260
37 -175 174 -297 361 -321 326 -43 557 172 519 482 -19 154 -120 274 -273 327
-70 24 -190 33 -266 19z m234 -63 c108 -53 175 -168 184 -315 10 -185 -60
-326 -194 -391 -68 -34 -178 -34 -250 -2 -231 104 -275 481 -78 661 34 31 74
57 102 66 69 22 168 14 236 -19z"/>
<path d="M8540 4199 c-219 -37 -368 -233 -346 -457 22 -219 172 -354 416 -377
98 -8 120 -16 280 -90 227 -107 322 -129 442 -105 95 18 218 86 189 104 -5 3
-21 2 -36 -4 -54 -20 -153 -28 -232 -19 -48 6 -149 34 -263 73 l-186 62 60 28
c203 96 283 355 176 572 -80 163 -281 249 -500 213z m237 -63 c62 -31 118 -92
151 -165 37 -81 43 -242 13 -333 -68 -201 -257 -289 -438 -202 -97 47 -164
149 -182 279 -30 211 74 401 244 446 54 15 159 2 212 -25z"/>
<path d="M10618 4159 c-153 -332 -288 -614 -314 -655 -43 -68 -77 -94 -126
-94 -57 0 -96 23 -103 63 -3 17 -5 170 -3 339 3 340 2 333 69 347 18 3 34 12
37 19 3 9 -61 12 -283 12 -225 0 -286 -3 -283 -12 3 -7 17 -15 31 -18 15 -3
36 -13 47 -22 19 -17 20 -29 20 -271 0 -298 -7 -337 -74 -403 -80 -81 -202
-85 -274 -11 -54 56 -62 106 -62 397 0 282 2 292 62 308 18 4 33 13 36 20 3 9
-36 12 -158 12 -122 0 -161 -3 -158 -12 3 -7 18 -16 34 -20 61 -16 62 -18 66
-308 5 -281 11 -325 57 -389 71 -100 271 -127 391 -53 35 22 53 43 80 96 l35
69 5 274 c5 274 5 275 29 294 32 26 120 26 152 0 l24 -19 0 -337 0 -336 -25
-19 c-14 -11 -36 -20 -49 -22 -14 -2 -26 -9 -29 -15 -3 -10 57 -13 277 -13
243 0 281 2 281 15 0 8 -9 15 -20 15 -38 0 -44 39 -18 116 l24 69 183 0 183 0
24 -59 c36 -89 29 -126 -23 -126 -14 0 -23 -6 -23 -15 0 -13 24 -15 160 -15
136 0 160 2 160 15 0 9 -9 15 -22 15 -28 0 -84 33 -96 57 -5 10 -71 175 -146
366 -75 192 -140 356 -145 364 -6 12 -14 3 -33 -38z m56 -334 c36 -93 66 -176
66 -182 0 -10 -39 -13 -161 -13 -125 0 -160 3 -156 13 29 75 172 366 178 360
3 -5 36 -84 73 -178z"/>
<path d="M5959 3057 c-130 -49 -197 -145 -186 -266 10 -114 71 -190 283 -354
65 -51 132 -111 148 -135 87 -123 -25 -282 -199 -282 -92 0 -151 24 -215 89
-70 70 -100 143 -107 259 -4 60 -9 82 -19 82 -10 0 -14 -15 -14 -53 0 -172 72
-317 189 -380 136 -74 326 -47 446 64 65 60 89 110 90 185 0 91 -42 146 -219
288 -201 161 -246 216 -246 301 0 101 85 175 200 175 78 -1 158 -62 181 -140
7 -23 18 -40 27 -40 12 0 13 12 7 72 -3 40 -8 76 -11 79 -2 4 -34 19 -71 34
-81 34 -224 44 -284 22z"/>
<path d="M9120 3063 c-115 -8 -150 -15 -150 -29 0 -8 10 -14 25 -14 34 0 82
-25 95 -49 14 -27 14 -825 0 -852 -13 -24 -61 -49 -95 -49 -16 0 -25 -6 -25
-15 0 -13 30 -15 206 -15 158 0 205 3 202 12 -3 7 -19 16 -38 19 -46 10 -84
41 -91 75 -11 51 -10 354 1 354 6 0 29 -9 52 -21 53 -27 167 -36 239 -19 174
41 297 174 288 309 -3 44 -1 51 14 51 26 0 74 -27 81 -45 3 -9 6 -159 6 -334
0 -355 1 -351 -70 -372 -22 -7 -40 -16 -40 -21 0 -4 132 -8 294 -8 l295 0 11
58 c6 31 16 73 21 92 15 57 -6 54 -44 -7 -55 -89 -92 -106 -237 -107 l-115 -1
0 170 0 170 90 0 c115 0 158 -21 179 -88 3 -10 10 -15 16 -12 6 4 10 55 10
121 0 95 -3 114 -15 114 -8 0 -15 -8 -15 -18 0 -24 -36 -56 -79 -71 -19 -6
-69 -11 -112 -11 l-79 0 0 180 0 180 101 0 c145 0 188 -26 221 -132 6 -21 17
-38 25 -38 10 0 13 24 13 105 l0 106 -292 -1 -292 -1 -17 34 c-39 76 -129 132
-263 167 -64 16 -107 20 -225 18 -80 -1 -166 -3 -191 -5z m381 -58 c58 -20
124 -75 149 -125 63 -124 10 -288 -114 -352 -62 -33 -164 -31 -238 4 l-58 27
0 225 0 225 33 10 c44 14 172 6 228 -14z"/>
<path d="M6720 2647 c-242 -522 -268 -566 -340 -582 -64 -14 -25 -25 90 -25
72 0 120 4 120 10 0 5 -11 12 -24 16 -35 8 -38 38 -13 113 l22 66 185 3 185 2
23 -60 c30 -75 26 -101 -15 -120 -18 -8 -33 -18 -33 -22 0 -8 260 -14 438 -10
118 3 154 13 92 27 -41 9 -68 47 -75 108 -3 29 -5 153 -3 277 l3 225 259 -325
c193 -242 264 -326 282 -328 l24 -3 0 371 0 372 29 29 c51 51 61 42 61 -61 0
-69 3 -90 13 -90 8 0 20 19 27 43 26 88 78 127 169 127 l51 0 0 -346 c0 -215
-4 -352 -10 -364 -6 -11 -28 -25 -50 -31 -22 -7 -40 -16 -40 -21 0 -4 72 -8
160 -8 98 0 160 4 160 10 0 5 -12 13 -27 16 -16 4 -38 16 -50 27 l-23 20 0
349 0 348 50 0 c94 0 150 -41 173 -127 6 -24 17 -43 24 -43 10 0 13 26 13 105
l0 105 -440 0 c-353 0 -440 -3 -440 -13 0 -7 14 -17 32 -22 17 -6 40 -21 50
-35 17 -23 18 -46 16 -292 l-3 -268 -259 326 c-177 223 -263 324 -275 322 -14
-3 -17 -41 -21 -379 -5 -405 -4 -396 -61 -419 -38 -16 -95 -1 -127 33 -13 13
-87 189 -167 392 -79 202 -146 369 -148 371 -2 2 -50 -96 -107 -219z m136
-170 l71 -182 -160 -3 c-88 -1 -161 -1 -163 1 -2 2 36 87 84 189 48 103 89
184 92 181 3 -2 37 -86 76 -186z"/>
<path d="M10508 2853 c-48 -3 -68 -8 -68 -17 0 -8 13 -16 30 -19 16 -4 39 -16
50 -27 19 -19 20 -32 20 -348 0 -328 0 -329 -22 -349 -13 -11 -35 -23 -50 -27
-16 -3 -28 -11 -28 -16 0 -6 62 -10 160 -10 88 0 160 4 160 8 0 5 -18 14 -40
21 -22 6 -44 20 -50 31 -9 17 -15 320 -6 320 2 0 26 -9 53 -21 85 -36 105 -59
171 -192 76 -152 91 -165 202 -167 41 -1 204 -1 362 -1 l286 1 15 68 c29 128
30 135 18 131 -6 -2 -25 -29 -43 -59 -49 -82 -91 -101 -234 -108 l-114 -5 0
177 0 176 74 0 c109 0 180 -32 188 -83 2 -11 9 -22 16 -25 9 -3 12 25 12 117
0 101 -2 121 -15 121 -8 0 -15 -8 -15 -18 0 -25 -40 -60 -81 -72 -19 -6 -67
-10 -106 -10 l-73 0 0 180 0 180 95 0 c60 0 108 -5 130 -14 38 -16 81 -75 91
-124 4 -17 13 -32 20 -32 11 0 14 23 14 105 l0 105 -285 0 c-235 0 -285 -2
-285 -14 0 -7 13 -16 30 -19 16 -4 39 -16 50 -27 19 -19 20 -32 20 -348 l0
-329 -25 -23 c-31 -29 -115 -35 -140 -10 -8 9 -37 67 -65 130 -28 63 -63 131
-80 151 l-29 37 46 17 c56 22 121 79 140 122 16 39 17 111 2 150 -14 37 -75
100 -121 124 -87 45 -212 56 -480 42z m341 -45 c94 -24 161 -126 146 -224 -7
-51 -53 -117 -96 -140 -44 -22 -133 -22 -191 0 l-48 19 0 178 0 178 38 4 c45
4 92 0 151 -15z"/>
<path d="M4080 2836 c0 -7 13 -16 30 -19 16 -4 39 -16 50 -27 19 -19 20 -32
20 -348 0 -328 0 -329 -22 -349 -13 -11 -35 -23 -50 -27 -16 -3 -28 -11 -28
-16 0 -17 396 -13 465 6 118 30 208 101 257 202 32 64 33 71 33 187 0 111 -2
124 -28 176 -15 32 -51 79 -82 108 -102 96 -194 121 -462 121 -149 0 -183 -3
-183 -14z m418 -41 c72 -22 150 -96 188 -177 26 -58 29 -72 28 -173 0 -140
-23 -205 -98 -280 -61 -62 -117 -83 -233 -92 l-83 -6 0 372 0 371 73 0 c40 0
96 -7 125 -15z"/>
<path d="M4830 2835 c0 -9 10 -15 26 -15 15 0 38 -12 55 -29 l29 -29 0 -314
c0 -231 -4 -320 -13 -338 -8 -15 -29 -31 -55 -40 -23 -8 -42 -18 -42 -22 0 -4
132 -8 294 -8 l294 0 17 90 c20 101 20 103 7 108 -5 1 -17 -16 -27 -38 -43
-96 -127 -134 -281 -128 l-79 3 -3 174 -2 173 93 -4 c110 -5 156 -25 172 -76
18 -61 30 -28 33 91 2 91 0 117 -10 117 -8 0 -19 -13 -25 -29 -17 -45 -64 -64
-170 -69 l-93 -4 0 181 0 181 100 0 c69 0 110 -5 129 -15 40 -20 79 -69 91
-115 19 -69 30 -45 30 65 l0 105 -285 0 c-247 0 -285 -2 -285 -15z"/>
<path d="M5400 1472 c-309 -667 -346 -730 -433 -746 -23 -4 -37 -13 -37 -21 0
-13 25 -15 150 -15 113 0 150 3 150 13 0 6 -15 19 -33 27 -30 14 -32 18 -31
65 0 28 11 76 25 110 l24 60 229 0 229 0 52 -126 c99 -244 192 -331 378 -354
47 -6 57 -5 57 7 0 9 -20 23 -45 32 -56 22 -129 101 -177 192 -20 38 -120 282
-222 543 -103 261 -188 476 -189 477 -2 2 -58 -117 -127 -264z m165 -225 l91
-232 -204 -3 c-113 -1 -207 -1 -209 1 -1 2 47 110 108 241 62 130 114 234 118
231 3 -3 46 -110 96 -238z"/>
<path d="M9066 1193 c-87 -186 -172 -360 -189 -387 -35 -56 -78 -86 -123 -86
-51 0 -78 31 -124 145 -24 58 -59 123 -77 145 -18 21 -33 40 -33 43 0 3 12 8
28 11 53 13 128 72 151 118 72 150 -39 293 -255 329 -95 15 -404 3 -404 -16 0
-7 12 -16 28 -20 15 -3 37 -16 50 -27 22 -21 22 -22 22 -350 0 -316 -1 -329
-20 -348 -11 -11 -34 -23 -50 -27 -17 -3 -30 -12 -30 -19 0 -11 31 -14 160
-14 129 0 160 3 160 14 0 7 -14 16 -32 20 -65 13 -68 22 -68 197 l0 158 46
-17 c79 -29 122 -75 175 -188 58 -122 88 -160 137 -174 20 -5 112 -10 205 -10
142 0 167 2 167 15 0 8 -8 15 -19 15 -46 0 -51 57 -11 148 l19 42 182 -2 181
-3 25 -63 c31 -76 26 -110 -17 -119 -17 -3 -30 -12 -30 -19 0 -11 31 -14 160
-14 130 0 160 3 160 14 0 8 -15 17 -35 20 -67 13 -77 30 -226 411 -78 198
-144 368 -148 378 -5 14 -51 -75 -165 -320z m-615 272 c86 -31 130 -80 144
-161 14 -91 -47 -193 -129 -215 -50 -14 -120 -6 -169 17 l-37 18 0 171 c0 95
3 175 7 178 12 13 141 7 184 -8z m798 -320 c39 -99 71 -183 71 -187 0 -4 -72
-8 -161 -8 -88 0 -159 4 -157 8 13 35 173 371 174 369 2 -1 35 -83 73 -182z"/>
<path d="M4844 1495 c-13 -20 -15 -38 -11 -78 9 -75 36 -157 51 -157 29 0 65
189 44 230 -19 36 -62 39 -84 5z"/>
<path d="M6791 1511 c-89 -6 -118 -24 -57 -35 20 -4 44 -18 56 -33 19 -25 20
-39 20 -343 0 -304 -1 -318 -20 -343 -12 -15 -36 -29 -56 -33 -19 -3 -33 -11
-31 -18 2 -7 56 -12 165 -14 134 -2 162 0 162 12 0 8 -14 16 -34 20 -64 12
-71 30 -74 202 -2 85 -1 154 3 154 3 0 34 -13 68 -28 78 -36 108 -71 167 -197
51 -108 78 -140 131 -155 19 -6 183 -10 375 -10 l341 0 17 86 c10 47 20 92 23
100 3 8 -1 14 -8 14 -8 0 -25 -21 -38 -46 -47 -88 -106 -114 -258 -114 l-103
0 2 173 3 172 87 -2 c107 -1 158 -22 173 -71 5 -18 15 -32 22 -32 10 0 13 29
13 120 0 100 -2 120 -15 120 -8 0 -15 -8 -15 -18 0 -23 -35 -57 -73 -71 -16
-6 -66 -11 -113 -11 l-84 0 2 178 3 177 82 3 c46 2 100 -2 122 -8 50 -13 97
-66 112 -126 19 -76 34 -48 34 67 l0 104 -284 0 c-203 0 -285 -3 -288 -11 -2
-7 12 -15 31 -18 20 -4 44 -18 56 -33 19 -25 20 -39 20 -344 0 -317 0 -318
-23 -344 -17 -20 -35 -28 -70 -32 -62 -7 -86 14 -128 116 -46 110 -68 153 -97
183 -14 15 -24 29 -21 31 2 1 28 14 57 27 188 85 189 293 3 387 -102 51 -206
61 -460 44z m334 -47 c70 -24 121 -79 134 -146 18 -88 -5 -151 -76 -205 -32
-25 -45 -28 -107 -28 -54 1 -81 6 -113 23 l-43 22 0 169 c0 126 3 171 13 174
28 12 147 6 192 -9z"/>
<path d="M4080 1497 c0 -9 12 -18 29 -22 15 -3 38 -15 50 -26 21 -19 21 -26
21 -349 0 -318 -1 -331 -20 -350 -11 -11 -34 -23 -50 -27 -17 -3 -30 -12 -30
-19 0 -11 32 -14 168 -14 92 0 198 5 237 10 147 22 266 105 322 225 26 55 28
70 28 175 0 103 -3 121 -26 171 -50 106 -129 172 -252 211 -87 28 -477 40
-477 15z m454 -61 c108 -53 173 -162 183 -307 9 -125 -22 -222 -98 -304 -55
-60 -124 -87 -231 -93 l-88 -4 0 372 0 373 90 -5 c70 -4 102 -11 144 -32z"/>
<path d="M6047 1503 c-14 -13 -6 -20 32 -31 68 -21 66 -10 66 -372 0 -307 -1
-329 -19 -349 -10 -11 -34 -23 -52 -27 -21 -4 -34 -12 -34 -21 0 -13 28 -15
218 -11 190 4 224 7 277 26 148 54 210 164 153 271 -26 48 -103 108 -150 118
-37 7 -35 16 8 32 43 16 100 64 120 102 7 15 14 44 14 64 0 104 -103 174 -288
195 -98 11 -335 14 -345 3z m407 -62 c115 -50 138 -157 53 -239 -38 -36 -74
-52 -142 -61 -34 -4 -51 -11 -53 -22 -2 -13 10 -17 59 -23 148 -15 240 -113
210 -223 -26 -94 -91 -135 -228 -141 l-93 -4 0 372 0 373 74 -6 c41 -3 95 -14
120 -26z"/>
</g>
</svg>
</svg>