<?xml version="1.0" encoding="UTF-8"?>
<svg xmlns="http://www.w3.org/2000/svg" viewBox="0 0 881 992" role="img" aria-label="Parròquia de Sant Pere d&#39;Abrera">
  <title>Parròquia de Sant Pere d&#39;Abrera</title>
  <g transform="translate(0,992) scale(0.1,-0.1)" fill="#ffffff" fill-rule="evenodd">
    <path d="M4390 9265 l0 -155 24 10 c19 7 26 5 30 -6 10 -26 7 -31 -24 -44 l-30&#xA;-12 0 -167 0 -166 142 -121 141 -121 95 24 94 25 36 -34 c42 -39 787 -751 845&#xA;-807 l38 -37 -61 -44 -60 -43 0 -1594 0 -1593 -25 0 -25 0 0 1598 0 1599 -108&#xA;104 c-60 57 -217 209 -348 338 l-239 233 -3 -1766 -2 -1766 -25 0 -25 0 0&#xA;1778 c0 978 -2 1781 -5 1783 -2 3 -132 -27 -287 -67 -156 -39 -517 -131 -803&#xA;-203 -286 -72 -528 -134 -537 -137 -17 -5 -18 -79 -18 -1365 l0 -1359 -25 0&#xA;-25 0 0 1368 0 1367 -66 83 c-37 46 -65 84 -63 86 3 3 354 95 607 160 l83 21&#xA;309 245 309 245 1 153 c0 150 0 153 -20 142 -24 -13 -40 -5 -40 19 0 11 12 24&#xA;30 31 l30 12 0 169 0 169 25 0 25 0 0 -155z m-122 -1319 c15 -8 38 -26 52 -41&#xA;l25 -27 3 -387 3 -386 -158 -39 c-87 -22 -164 -41 -171 -44 -10 -4 -12 72 -10&#xA;399 l3 404 24 39 c50 80 158 119 229 82z m-381 -105 c30 -14 48 -31 62 -60 20&#xA;-38 21 -56 21 -409 l0 -370 -165 -41 c-90 -22 -167 -41 -170 -41 -3 0 -5 178&#xA;-5 395 0 369 1 398 19 433 24 46 56 76 101 96 47 20 87 19 137 -3z m1277 -20&#xA;c15 -10 37 -32 47 -47 18 -27 19 -54 19 -451 0 -233 -2 -423 -5 -423 -2 0 -43&#xA;37 -90 81 l-85 82 0 373 0 373 22 15 c30 21 57 20 92 -3z m248 -168 c15 -15&#xA;33 -43 38 -62 12 -42 14 -871 2 -871 -4 0 -47 39 -95 88 l-87 87 0 382 0 382&#xA;23 16 c30 22 83 13 119 -22z m-1139 -728 c18 -9 41 -28 52 -43 19 -26 20 -43&#xA;20 -421 l0 -393 -150 -39 c-82 -21 -158 -39 -168 -39 -17 0 -18 21 -15 408 l3&#xA;407 24 39 c51 82 157 118 234 81z m888 -90 c16 -9 39 -30 49 -48 19 -30 20&#xA;-53 20 -481 l0 -450 -89 85 -88 84 -2 397 -1 397 22 15 c28 20 51 20 89 1z&#xA;m-1271 -14 c19 -10 45 -36 57 -57 23 -39 23 -42 20 -419 l-2 -380 -140 -36&#xA;c-77 -20 -152 -39 -167 -43 l-28 -6 0 405 c0 379 1 408 19 443 49 96 158 138&#xA;241 93z m1511 -148 c58 -49 58 -50 59 -525 0 -240 -3 -443 -6 -453 -6 -13 -24&#xA;0 -95 71 l-89 89 0 407 0 407 22 15 c33 24 72 19 109 -11z m-1201 -888 c21&#xA;-13 50 -40 65 -59 52 -68 55 -98 55 -493 0 -199 -3 -363 -6 -363 -3 0 -136&#xA;-20 -296 -45 -160 -25 -293 -45 -295 -45 -2 0 -3 174 -1 388 l3 387 27 57 c85&#xA;183 301 266 448 173z m1112 -131 c46 -44 100 -152 117 -234 9 -38 11 -174 9&#xA;-437 l-3 -383 -178 172 -178 171 3 321 c3 310 4 322 25 363 32 60 58 75 116&#xA;70 39 -3 56 -11 89 -43z m-739 -1312 c16 -52 26 -97 22 -100 -7 -7 -54 43&#xA;-147 151 l-41 48 69 -3 68 -3 29 -93z m-3110 63 c207 -42 328 -179 299 -337&#xA;-19 -100 -80 -170 -197 -225 -54 -25 -71 -28 -170 -28 -95 0 -116 3 -157 23&#xA;-32 16 -48 30 -48 43 0 23 -3 24 56 -3 58 -26 160 -29 214 -6 51 22 96 63 128&#xA;117 23 40 27 57 27 126 0 120 -44 189 -150 236 -60 28 -244 40 -270 19 -23&#xA;-19 -22 -865 1 -898 18 -26 65 -52 94 -52 11 0 20 -7 20 -15 0 -13 -29 -15&#xA;-200 -15 -163 0 -200 3 -200 14 0 8 16 16 41 20 23 4 51 17 65 31 l24 24 0&#xA;420 0 420 -27 25 c-14 14 -44 28 -65 31 -23 4 -37 12 -35 18 5 15 301 36 407&#xA;30 41 -3 106 -11 143 -18z m1622 -207 c75 -15 152 -56 190 -100 53 -63 64&#xA;-155 27 -225 -12 -22 -90 -93 -103 -93 -3 0 -23 -7 -43 -15 l-37 -16 35 -40&#xA;c19 -23 54 -87 77 -143 44 -106 71 -144 104 -147 54 -5 87 3 110 26 l25 24 0&#xA;323 c0 362 1 358 -70 379 -22 7 -40 16 -40 20 0 9 231 24 327 22 170 -5 307&#xA;-74 345 -172 14 -39 11 -126 -6 -159 -21 -40 -70 -80 -134 -109 l-52 -25 34&#xA;-40 c19 -22 54 -86 77 -142 47 -113 68 -142 110 -151 49 -11 32 -25 -30 -25&#xA;-68 0 -119 15 -144 44 -10 12 -42 71 -72 133 -60 121 -87 152 -173 190 -29 12&#xA;-55 23 -57 23 -3 0 -5 -71 -5 -158 0 -174 3 -184 66 -201 15 -4 29 -12 32 -19&#xA;5 -16 -413 -17 -455 -1 -48 18 -74 51 -129 166 -59 122 -83 148 -176 192 l-58&#xA;28 0 -162 c0 -178 3 -187 66 -204 15 -4 29 -12 32 -19 3 -9 -72 -12 -312 -12&#xA;-174 0 -316 4 -316 8 0 5 15 15 33 23 42 18 45 47 13 124 l-24 60 -185 3 -184&#xA;2 -16 -42 c-36 -98 -34 -142 8 -152 14 -4 25 -11 25 -16 0 -6 -48 -10 -120&#xA;-10 -122 0 -148 9 -85 30 63 21 111 96 243 385 93 205 181 388 190 397 5 5 73&#xA;-157 153 -358 79 -202 151 -377 161 -389 36 -46 154 -49 190 -5 17 20 18 48&#xA;18 344 0 360 1 356 -70 377 -22 7 -40 16 -40 20 0 4 57 10 128 14 70 3 132 8&#xA;137 10 15 5 123 -5 180 -17z m1580 0 c160 -39 281 -172 304 -333 32 -224 -91&#xA;-414 -304 -470 -73 -19 -203 -19 -271 -1 -256 68 -383 349 -268 592 26 54 97&#xA;131 155 166 99 60 252 79 384 46z m965 -8 c146 -43 248 -151 279 -298 42 -200&#xA;-43 -379 -222 -466 l-68 -34 38 -7 c21 -4 85 -24 143 -45 178 -66 255 -83 360&#xA;-83 58 0 114 6 143 16 64 20 69 4 10 -33 -69 -43 -145 -64 -234 -63 -98 1&#xA;-161 20 -338 103 -153 72 -238 100 -306 100 -148 0 -303 96 -368 229 -31 63&#xA;-32 71 -32 186 0 109 2 125 27 178 93 198 325 287 568 217z m1895 -87 c147&#xA;-381 249 -631 266 -649 11 -12 38 -26 59 -33 76 -23 43 -31 -120 -31 -159 0&#xA;-192 8 -126 30 19 6 37 18 40 27 6 15 -24 122 -42 151 -7 9 -52 12 -192 10&#xA;l-184 -3 -23 -65 c-29 -85 -29 -98 7 -118 16 -9 30 -20 30 -24 0 -5 -124 -8&#xA;-275 -8 -157 0 -275 4 -275 9 0 5 14 14 32 20 71 25 68 8 68 376 l0 332 -24&#xA;22 c-50 47 -154 33 -176 -25 -6 -14 -10 -130 -10 -258 0 -302 -16 -367 -108&#xA;-439 -49 -38 -103 -50 -197 -45 -94 5 -148 29 -193 84 -53 64 -62 121 -62 401&#xA;0 234 -1 252 -20 276 -11 14 -35 28 -55 31 -19 4 -35 11 -35 16 0 6 65 10 160&#xA;10 98 0 160 -4 160 -10 0 -5 -12 -13 -27 -16 -16 -4 -38 -16 -50 -27 -23 -20&#xA;-23 -24 -23 -276 0 -253 6 -314 37 -378 42 -89 206 -110 292 -37 17 14 43 51&#xA;58 82 l28 57 3 263 c4 261 3 264 -18 287 -13 13 -35 27 -51 30 -16 4 -29 11&#xA;-29 16 0 5 116 9 280 9 154 0 280 -4 280 -8 0 -4 -19 -14 -42 -22 -26 -9 -47&#xA;-25 -55 -40 -15 -30 -19 -624 -4 -663 6 -16 25 -31 53 -41 37 -15 49 -15 83&#xA;-4 55 18 96 77 179 255 192 413 250 532 256 528 5 -3 25 -49 45 -102z m-4824&#xA;-1054 c88 -34 92 -39 102 -126 7 -64 -14 -75 -33 -17 -16 46 -66 103 -107 120&#xA;-66 28 -175 12 -227 -34 -26 -23 -56 -90 -56 -128 0 -16 12 -53 26 -82 27 -53&#xA;76 -101 256 -246 151 -120 193 -183 186 -276 -6 -79 -52 -150 -132 -202 -85&#xA;-54 -150 -71 -257 -66 -79 4 -93 7 -146 40 -112 69 -171 178 -180 336 -8 122&#xA;9 120 24 -3 19 -156 81 -259 188 -310 75 -35 190 -36 255 -1 70 37 103 85 108&#xA;155 3 40 -1 67 -12 89 -15 29 -148 148 -206 184 -65 40 -180 161 -209 220 -50&#xA;100 -40 212 27 281 95 99 243 124 393 66z m3284 16 c140 -26 256 -101 296&#xA;-190 25 -54 25 -157 0 -210 -43 -92 -163 -174 -289 -196 -110 -20 -253 18&#xA;-260 68 -3 21 -3 21 60 -4 108 -44 226 -19 298 63 48 55 64 99 63 179 0 160&#xA;-108 255 -299 263 -148 7 -134 55 -134 -454 0 -279 4 -442 10 -455 13 -24 61&#xA;-49 95 -49 16 0 25 -6 25 -15 0 -13 -29 -15 -200 -15 -171 0 -200 2 -200 15 0&#xA;9 9 15 25 15 34 0 82 25 95 49 6 13 10 168 10 431 l0 412 -30 28 c-16 15 -45&#xA;31 -65 34 -60 12 -39 24 53 31 48 3 96 7 107 9 61 10 273 4 340 -9z m-2452&#xA;-775 c71 -176 90 -204 152 -216 51 -9 83 2 105 39 19 30 20 52 20 399 0 362 0&#xA;366 20 361 11 -3 133 -148 272 -322 138 -174 255 -320 259 -325 5 -6 9 112 9&#xA;266 l0 276 -26 31 c-16 19 -35 31 -50 31 -15 0 -24 6 -24 15 0 13 55 15 435&#xA;15 l435 0 0 -105 c0 -58 -4 -105 -8 -105 -4 0 -13 19 -19 43 -6 23 -27 60 -46&#xA;82 -34 39 -36 40 -111 43 l-76 4 0 -338 c0 -253 4 -345 13 -364 8 -15 29 -31&#xA;55 -40 23 -8 42 -18 42 -22 0 -4 -72 -8 -160 -8 -151 0 -200 10 -130 25 17 4&#xA;40 16 50 28 19 20 20 37 20 369 l0 348 -65 0 c-61 0 -68 -2 -105 -36 -27 -24&#xA;-45 -52 -53 -82 -23 -78 -37 -64 -37 37 0 89 -1 91 -23 91 -13 0 -34 -12 -48&#xA;-26 l-24 -26 -3 -374 c-2 -346 -4 -374 -20 -374 -10 1 -122 132 -277 328&#xA;l-260 326 -3 -268 c-2 -244 -1 -271 16 -300 11 -18 30 -34 50 -40 18 -5 32&#xA;-13 32 -17 0 -5 -124 -9 -275 -9 -255 0 -326 7 -245 25 50 11 51 48 3 162&#xA;l-13 33 -181 0 -180 0 -21 -47 c-12 -26 -23 -67 -26 -91 -4 -40 -3 -43 27 -55&#xA;17 -6 31 -15 31 -19 0 -4 -54 -8 -120 -8 -114 0 -154 11 -91 25 39 8 81 50&#xA;118 116 17 30 97 197 178 371 l149 317 82 -212 c45 -117 111 -286 147 -377z&#xA;m3825 565 c169 -39 263 -153 231 -280 -14 -55 -85 -124 -154 -151 l-45 -17 30&#xA;-33 c36 -42 49 -66 90 -171 40 -105 74 -137 138 -130 26 3 53 14 68 28 l24 22&#xA;0 328 c0 365 0 363 -70 378 -88 18 -15 26 250 29 l280 2 0 -105 c0 -103 -12&#xA;-137 -25 -72 -10 46 -43 96 -79 118 -25 15 -51 19 -138 19 l-108 0 0 -180 0&#xA;-180 78 0 c42 0 92 4 111 10 41 12 81 47 81 72 0 10 5 18 10 18 6 0 10 -45 10&#xA;-115 0 -108 -11 -149 -23 -87 -9 46 -57 66 -169 70 l-98 4 0 -177 0 -177 118&#xA;4 c88 3 126 8 152 22 40 21 84 68 101 108 13 31 30 37 28 11 0 -10 -8 -52 -17&#xA;-93 l-17 -75 -353 -3 c-299 -2 -358 0 -385 13 -37 17 -85 85 -117 165 -38 96&#xA;-69 131 -153 176 l-77 42 0 -162 c0 -156 1 -163 23 -184 12 -11 34 -24 50 -27&#xA;64 -16 17 -25 -134 -25 -151 0 -193 9 -119 25 16 4 39 18 50 32 19 25 20 40&#xA;20 348 0 359 0 359 -68 373 -57 12 -36 27 45 33 159 11 294 9 361 -6z m-6318&#xA;-23 c149 -48 239 -147 270 -297 27 -133 -11 -267 -101 -358 -104 -104 -187&#xA;-127 -456 -127 -179 0 -233 8 -165 25 15 3 37 16 50 27 22 21 22 22 22 350 l0&#xA;329 -25 24 c-13 14 -36 25 -50 25 -16 0 -25 6 -25 16 0 15 21 16 208 12 174&#xA;-5 217 -9 272 -26z m840 -78 c0 -79 -3 -105 -12 -102 -7 3 -15 18 -19 34 -9&#xA;44 -37 87 -73 112 -28 19 -45 22 -139 22 l-107 0 0 -180 0 -180 79 0 c114 0&#xA;168 23 185 78 16 50 26 15 26 -93 0 -63 -3 -115 -7 -115 -5 0 -15 15 -23 33&#xA;-21 46 -60 61 -167 65 l-93 4 0 -177 0 -177 118 4 c126 5 157 14 203 65 15 15&#xA;34 43 43 61 17 34 41 44 33 15 -3 -10 -13 -53 -22 -95 l-16 -78 -290 0 c-159&#xA;0 -289 4 -289 8 0 5 17 14 39 20 21 7 44 18 50 26 12 14 18 657 6 687 -7 17&#xA;-38 36 -69 41 -11 2 -21 9 -24 16 -3 9 58 12 282 12 l286 0 0 -106z m4990 1&#xA;c0 -111 -11 -134 -31 -63 -27 103 -69 128 -214 128 l-105 0 0 -180 0 -180 78&#xA;0 c42 0 92 4 111 10 41 12 81 47 81 72 0 10 5 18 10 18 6 0 10 -45 10 -115 0&#xA;-63 -3 -115 -7 -115 -5 0 -15 15 -23 33 -23 49 -69 67 -172 67 l-88 0 0 -176&#xA;0 -176 118 4 c125 4 154 13 204 62 14 15 34 42 43 61 9 19 20 35 25 35 6 0 10&#xA;-2 10 -4 0 -8 -30 -151 -36 -168 -5 -17 -28 -18 -295 -18 -261 0 -341 7 -261&#xA;23 16 3 39 15 53 25 l24 20 3 324 c2 363 2 365 -63 383 -21 7 -41 17 -43 23&#xA;-3 9 68 12 282 12 l286 0 0 -105z m-3621 -1467 c95 -244 193 -485 218 -537 53&#xA;-112 123 -192 189 -217 59 -22 60 -47 2 -38 -205 29 -290 109 -391 364 l-45&#xA;115 -234 0 -233 0 -23 -59 c-45 -112 -42 -170 8 -181 68 -15 22 -25 -115 -25&#xA;-140 0 -187 11 -109 26 41 8 102 65 140 134 21 37 321 673 386 818 10 23 22&#xA;42 26 42 4 0 86 -199 181 -442z m-783 217 c13 -20 15 -37 10 -78 -10 -72 -38&#xA;-158 -50 -154 -16 5 -44 114 -45 174 -1 79 49 113 85 58z m2182 15 c179 -29&#xA;281 -115 282 -237 0 -55 -14 -91 -53 -131 -34 -36 -115 -82 -144 -82 -13 0&#xA;-10 -7 14 -32 34 -36 69 -101 103 -191 12 -31 33 -71 47 -87 21 -26 32 -30 73&#xA;-30 33 0 55 6 74 21 l26 20 0 338 c0 376 2 363 -68 377 -84 17 -8 24 253 24&#xA;l285 0 0 -100 c0 -78 -3 -100 -14 -100 -8 0 -16 16 -20 40 -8 50 -56 106 -104&#xA;120 -21 6 -77 10 -127 8 -78 -3 -90 -5 -89 -20 1 -10 2 -90 3 -178 l1 -160 88&#xA;0 c104 0 150 18 171 68 8 17 18 32 23 32 9 0 11 -224 2 -233 -4 -4 -15 11 -26&#xA;32 -26 52 -62 66 -173 66 l-90 0 2 -155 c1 -85 2 -163 3 -172 0 -16 12 -18&#xA;103 -18 56 0 118 5 138 10 44 12 91 56 119 110 20 40 46 56 37 23 -3 -10 -13&#xA;-53 -22 -95 l-16 -78 -364 0 -364 0 -35 30 c-22 19 -53 70 -86 138 -28 59 -61&#xA;118 -73 131 -12 13 -52 38 -89 56 l-68 33 0 -162 c0 -181 3 -189 68 -202 73&#xA;-15 22 -24 -128 -24 -150 0 -201 9 -128 24 70 14 68 2 68 376 0 374 2 362 -68&#xA;376 -50 10 -38 22 31 28 34 3 78 8 97 9 78 8 178 6 238 -3z m1359 -6 c120 -25&#xA;196 -72 233 -145 24 -45 26 -128 6 -167 -22 -41 -86 -96 -136 -117 -25 -10&#xA;-47 -20 -49 -22 -3 -2 7 -16 21 -31 38 -40 53 -68 93 -167 44 -110 65 -135&#xA;116 -135 87 0 117 39 245 311 53 112 113 240 133 284 21 44 50 108 66 143 29&#xA;65 34 67 53 17 6 -16 70 -181 142 -365 138 -354 149 -373 215 -386 77 -14 27&#xA;-24 -125 -24 -100 0 -160 4 -160 10 0 6 9 10 20 10 11 0 29 9 41 21 22 22 21&#xA;24 -13 117 l-19 52 -185 0 -185 0 -18 -43 c-39 -90 -35 -147 9 -147 11 0 20&#xA;-4 20 -9 0 -11 -201 -18 -312 -11 -67 4 -80 8 -107 34 -16 16 -37 45 -46 65&#xA;-60 130 -92 186 -129 217 -22 19 -44 34 -48 34 -5 0 -27 9 -48 19 l-40 19 0&#xA;-162 c0 -181 3 -189 68 -202 73 -15 22 -24 -128 -24 -100 0 -160 4 -160 10 0&#xA;6 9 10 20 10 39 0 70 23 81 59 7 23 9 147 7 344 l-3 309 -28 24 c-15 13 -39&#xA;24 -53 24 -51 0 -21 19 39 24 34 3 76 8 92 9 79 10 203 5 272 -9z m-3874 -33&#xA;c111 -44 200 -135 232 -239 24 -76 22 -202 -4 -277 -38 -109 -136 -197 -258&#xA;-235 -56 -17 -93 -20 -274 -20 -194 0 -257 9 -175 24 18 4 42 16 52 27 18 20&#xA;19 42 19 349 0 307 -1 329 -19 349 -10 11 -34 23 -52 27 -19 3 -34 11 -34 16&#xA;0 6 85 8 228 6 208 -4 232 -6 285 -27z m1892 14 c171 -44 243 -162 163 -266&#xA;-19 -24 -55 -53 -85 -68 -29 -14 -52 -29 -52 -33 -1 -3 12 -9 27 -13 38 -8&#xA;103 -53 138 -94 26 -31 29 -42 29 -104 l0 -69 -51 -47 c-85 -78 -140 -91 -394&#xA;-91 -195 0 -258 9 -175 24 65 12 65 14 65 378 0 316 -1 329 -20 348 -11 11&#xA;-34 23 -50 27 -74 14 -15 23 158 23 136 0 204 -4 247 -15z"></path>
    <path d="M4304 8637 c-29 -23 -142 -114 -253 -201 -110 -88 -199 -161 -198&#xA;-163 5 -4 741 188 748 195 7 7 -210 199 -233 206 -7 3 -36 -14 -64 -37z"></path>
    <path d="M4605 8415 c-227 -60 -956 -250 -1269 -331 -115 -29 -211 -56 -214&#xA;-59 -5 -5 69 -105 79 -105 6 0 205 50 1334 337 165 42 303 79 308 83 4 3 4 34&#xA;1 68 -5 48 -10 62 -23 61 -9 0 -106 -24 -216 -54z"></path>
    <path d="M4896 8383 c7 -56 -26 -20 423 -457 173 -168 320 -306 325 -306 6 1&#xA;22 10 35 21 21 17 22 22 10 33 -47 43 -564 539 -665 638 -66 65 -124 118 -127&#xA;118 -4 0 -4 -21 -1 -47z"></path>
    <path d="M4135 7891 c-17 -10 -40 -31 -50 -47 -19 -27 -20 -51 -23 -391 -3&#xA;-333 -2 -363 14 -363 9 0 63 12 120 27 l104 27 0 349 c0 355 -2 376 -39 404&#xA;-24 18 -92 15 -126 -6z"></path>
    <path d="M3760 7792 c-19 -9 -45 -32 -57 -51 -23 -34 -23 -36 -23 -398 0 -342&#xA;1 -364 18 -359 9 3 46 12 82 21 36 9 82 21 103 26 l37 10 0 338 c0 222 -4 349&#xA;-11 370 -12 34 -53 61 -91 61 -13 0 -39 -8 -58 -18z"></path>
    <path d="M5100 7437 l0 -353 40 -39 40 -39 0 367 0 368 -25 24 c-13 14 -31 25&#xA;-40 25 -13 0 -15 -41 -15 -353z"></path>
    <path d="M5321 7273 l1 -368 44 -39 45 -39 -3 381 -3 380 -24 26 c-14 14 -33&#xA;26 -43 26 -17 0 -18 -18 -17 -367z"></path>
    <path d="M4129 6867 c-68 -45 -69 -50 -69 -454 0 -284 3 -363 13 -362 6 0 59&#xA;13 117 28 l105 28 3 360 2 361 -26 31 c-21 26 -33 31 -68 31 -28 0 -55 -8 -77&#xA;-23z"></path>
    <path d="M5100 6428 c1 -407 -3 -380 58 -432 l22 -19 0 387 0 387 -25 24 c-13&#xA;14 -31 25 -40 25 -13 0 -15 -43 -15 -372z"></path>
    <path d="M3752 6770 c-18 -11 -41 -34 -52 -52 -19 -31 -20 -51 -20 -400 0&#xA;-271 3 -368 12 -368 6 0 60 12 120 27 l108 27 0 354 c0 240 -4 360 -11 375&#xA;-29 57 -97 73 -157 37z"></path>
    <path d="M5320 6262 l0 -388 38 -37 c21 -20 41 -37 45 -37 4 0 6 180 5 399&#xA;l-3 399 -24 26 c-14 14 -33 26 -43 26 -17 0 -18 -19 -18 -388z"></path>
    <path d="M4011 5769 c-88 -17 -173 -87 -215 -178 -20 -44 -21 -65 -24 -398 -2&#xA;-194 1 -353 5 -353 4 0 117 16 251 37 l242 37 0 341 c0 384 -4 410 -67 465&#xA;-55 49 -116 64 -192 49z"></path>
    <path d="M5193 5649 c-12 -4 -30 -23 -40 -41 -16 -29 -18 -67 -21 -338 l-3&#xA;-306 128 -124 128 -125 3 325 c1 199 -2 345 -8 376 -15 71 -62 164 -101 200&#xA;-41 38 -57 44 -86 33z"></path>
    <path d="M2873 4174 c-10 -4 -13 -51 -13 -183 l0 -177 48 -17 c60 -22 153 -22&#xA;199 -1 70 34 112 130 93 217 -22 103 -102 159 -234 164 -45 1 -87 0 -93 -3z"></path>
    <path d="M3593 4174 c-10 -4 -13 -51 -13 -183 l0 -177 48 -17 c63 -23 158 -22&#xA;202 2 19 10 48 40 65 66 65 104 23 235 -93 291 -37 17 -183 30 -209 18z"></path>
    <path d="M2146 3953 c-20 -43 -61 -130 -90 -193 l-53 -115 84 -3 c45 -1 121&#xA;-1 167 0 l84 3 -75 190 c-41 104 -76 191 -77 193 -2 2 -20 -32 -40 -75z"></path>
    <path d="M4427 4166 c-162 -58 -253 -248 -218 -452 35 -196 175 -317 349 -301&#xA;82 8 139 36 192 93 153 166 140 468 -28 609 -71 60 -205 83 -295 51z"></path>
    <path d="M5380 4171 c-81 -26 -155 -96 -197 -186 -26 -56 -28 -69 -28 -190 0&#xA;-120 2 -135 26 -186 36 -76 90 -133 157 -166 48 -24 70 -28 137 -28 95 0 154&#xA;24 217 89 171 174 130 530 -73 640 -45 25 -67 30 -134 33 -44 1 -91 -1 -105&#xA;-6z"></path>
    <path d="M7337 3835 c-48 -101 -87 -187 -87 -190 0 -3 74 -5 165 -5 91 0 165&#xA;3 165 7 0 15 -144 373 -150 373 -4 0 -46 -83 -93 -185z"></path>
    <path d="M3164 2498 l-91 -193 84 -3 c45 -1 121 -1 167 0 l84 3 -69 175 c-38&#xA;96 -73 183 -77 193 -6 14 -29 -28 -98 -175z"></path>
    <path d="M7153 2830 c-23 -9 -23 -12 -23 -184 l0 -174 62 -21 c70 -24 96 -25&#xA;151 -10 111 30 167 170 111 280 -44 86 -209 146 -301 109z"></path>
    <path d="M770 2449 l0 -372 93 5 c146 9 236 61 289 170 104 215 28 478 -160&#xA;548 -37 14 -77 20 -137 20 l-85 0 0 -371z"></path>
    <path d="M2930 1346 c-40 -88 -91 -197 -112 -240 -21 -44 -38 -81 -38 -83 0&#xA;-1 95 -3 210 -3 116 0 210 2 210 5 0 3 -21 58 -46 123 -25 64 -66 169 -91 232&#xA;-24 63 -47 118 -51 121 -4 4 -41 -66 -82 -155z"></path>
    <path d="M4469 1348 c-1 -78 -2 -160 -3 -180 -3 -36 -1 -37 52 -57 92 -35 173&#xA;-27 227 25 44 41 65 89 65 149 0 82 -34 137 -110 177 -36 18 -64 24 -137 26&#xA;l-93 4 -1 -144z"></path>
    <path d="M5800 1310 l0 -181 38 -16 c82 -35 181 -29 232 14 104 87 92 257 -24&#xA;328 -44 27 -59 30 -148 33 l-98 4 0 -182z"></path>
    <path d="M6630 1158 c-47 -99 -86 -185 -88 -190 -2 -4 71 -8 163 -8 99 0 165&#xA;4 163 9 -30 86 -144 371 -148 371 -3 0 -44 -82 -90 -182z"></path>
    <path d="M1840 1110 l0 -372 98 4 c84 3 104 8 150 33 96 52 155 146 173 274&#xA;18 129 -26 277 -104 347 -62 57 -118 77 -224 82 l-93 4 0 -372z"></path>
    <path d="M3800 1111 l0 -371 78 0 c99 0 144 13 192 56 48 44 64 82 58 143 -9&#xA;94 -85 157 -202 168 -54 5 -66 9 -64 22 2 11 19 18 53 22 122 16 185 75 185&#xA;173 0 88 -80 145 -217 154 l-83 5 0 -372z"></path>
  </g>
</svg>