<?xml version="1.0" encoding="UTF-8"?>
<svg xmlns="http://www.w3.org/2000/svg" width="400" height="660" viewBox="62.03 48 320.97 583">
<g transform="translate(0.000000,701.000000) scale(0.100000,-0.100000)" fill="#ffffff" stroke="none">
<path d="M2140 6341 l0 -188 -62 -18 c-35 -9 -66 -19 -71 -22 -4 -2 5 -20 20
-39 27 -36 31 -37 96 -18 16 5 17 -7 17 -159 l0 -165 -112 -89 c-62 -49 -222
-176 -355 -282 l-242 -192 -400 -105 c-221 -57 -403 -104 -406 -104 -14 0 1
-23 75 -115 l80 -100 0 -1577 0 -1578 40 0 40 0 0 1564 c0 861 4 1567 8 1570
8 4 1856 476 1867 476 3 0 5 -922 5 -2050 l0 -2050 40 0 40 0 2 2024 3 2025
392 -382 393 -382 0 -1842 0 -1843 40 0 40 0 0 1839 0 1839 70 52 c39 29 70
53 70 55 0 2 -215 209 -477 461 -263 251 -504 482 -536 513 l-57 56 -111 -29
c-110 -28 -110 -28 -132 -9 -12 11 -84 73 -159 138 l-138 118 0 177 0 178 65
17 c36 10 65 23 65 29 -1 6 -11 24 -24 40 -22 27 -26 28 -56 17 -18 -6 -37
-11 -41 -11 -5 0 -9 79 -9 175 l0 175 -40 0 -40 0 0 -189z m174 -798 c69 -59
123 -109 122 -110 -1 -2 -175 -48 -387 -103 -211 -55 -391 -103 -399 -106 -13
-4 -13 -3 0 10 39 39 516 415 527 416 7 0 69 -48 137 -107z m410 -203 l7 -55
-938 -238 c-516 -130 -943 -237 -949 -237 -19 0 -87 94 -72 99 7 3 445 118
973 256 616 161 962 247 966 240 4 -5 10 -35 13 -65z m619 -499 c196 -188 357
-345 357 -348 0 -8 -33 -32 -43 -33 -5 0 -197 185 -428 411 -397 389 -419 413
-419 447 l0 36 88 -85 c48 -47 248 -239 445 -428z"/>
<path d="M1915 4826 c-51 -22 -97 -68 -121 -121 l-24 -50 0 -454 c0 -422 1
-453 17 -447 9 4 99 28 200 53 l183 45 0 426 c0 412 -1 427 -21 469 -38 80
-148 117 -234 79z m157 -75 l33 -29 0 -413 0 -413 -130 -33 c-71 -18 -134 -33
-138 -33 -4 0 -6 188 -5 418 l3 418 26 41 c51 76 151 97 211 44z"/>
<path d="M1440 4688 c-42 -26 -61 -45 -82 -87 l-28 -53 0 -458 0 -458 158 40
c86 21 174 44 195 49 l38 10 -3 444 c-3 432 -4 444 -24 472 -61 82 -159 98
-254 41z m191 -57 l29 -30 -2 -412 -3 -412 -125 -33 c-69 -19 -128 -34 -132
-34 -5 0 -8 188 -8 419 l0 418 23 34 c35 52 82 79 139 79 41 0 54 -5 79 -29z"/>
<path d="M2998 4682 l-28 -17 0 -431 0 -431 105 -97 105 -98 0 494 0 493 -25
38 c-44 63 -104 83 -157 49z m98 -73 l29 -30 3 -415 c2 -228 -1 -414 -6 -414
-4 0 -27 19 -50 43 l-42 43 0 402 c0 382 1 402 18 402 10 0 31 -14 48 -31z"/>
<path d="M3290 4513 c-8 -3 -23 -12 -32 -21 -17 -14 -18 -49 -18 -461 l0 -446
105 -98 105 -98 0 509 0 509 -22 33 c-38 56 -99 88 -138 73z m71 -82 l29 -29
0 -438 0 -438 -45 44 -45 44 0 423 c0 467 -2 456 61 394z"/>
<path d="M1960 3660 c-78 -14 -156 -83 -178 -159 -8 -26 -12 -176 -12 -490 0
-423 1 -451 18 -450 9 0 98 22 197 47 l180 47 3 438 c2 420 1 439 -18 476 -35
69 -110 105 -190 91z m102 -74 c46 -28 48 -50 48 -480 0 -223 -1 -406 -3 -406
-2 0 -64 -16 -138 -35 -74 -19 -135 -35 -136 -35 -2 0 -3 188 -3 418 0 383 2
420 19 457 22 49 48 73 98 91 39 14 84 10 115 -10z"/>
<path d="M3020 3553 c-8 -3 -23 -12 -32 -21 -17 -14 -18 -49 -18 -466 l0 -451
105 -105 105 -105 -2 530 c-3 512 -4 531 -23 557 -11 15 -38 37 -61 48 -42 21
-49 22 -74 13z m59 -69 c49 -35 51 -52 51 -509 0 -234 -3 -425 -7 -425 -4 0
-27 19 -50 42 l-43 42 0 433 c0 463 -1 452 49 417z"/>
<path d="M1502 3540 c-49 -11 -108 -55 -139 -102 l-28 -42 -3 -478 c-2 -328 1
-478 8 -478 6 0 94 21 195 46 l185 46 0 445 c0 363 -3 449 -14 471 -22 42 -67
79 -111 91 -45 12 -47 12 -93 1z m92 -64 c68 -28 66 -15 66 -478 l0 -417 -42
-11 c-77 -20 -193 -51 -210 -56 -17 -5 -18 20 -18 423 0 416 1 429 21 462 26
43 56 68 94 80 42 13 51 13 89 -3z"/>
<path d="M3262 3354 l-22 -15 0 -472 0 -472 105 -105 105 -105 0 540 c0 521
-1 541 -20 573 -39 63 -119 90 -168 56z m103 -69 l25 -24 0 -468 0 -467 -45
44 -45 44 0 448 c0 445 0 448 20 448 12 0 32 -11 45 -25z"/>
<path d="M1719 2355 c-130 -47 -226 -148 -263 -274 -14 -46 -16 -121 -16 -483
0 -411 1 -428 19 -428 10 0 163 22 341 50 178 28 324 50 326 50 2 0 4 190 4
423 0 369 -2 430 -17 473 -32 94 -84 151 -175 189 -46 18 -168 19 -219 0z
m209 -61 c47 -19 88 -58 115 -109 21 -39 22 -52 25 -452 2 -227 -1 -413 -5
-413 -4 0 -133 -20 -286 -43 l-278 -43 3 415 3 416 29 55 c37 71 114 144 179
169 64 24 163 27 215 5z"/>
<path d="M3077 2196 c-64 -63 -67 -88 -67 -485 l0 -356 178 -175 c97 -97 192
-189 210 -205 l33 -30 -3 465 c-4 402 -6 473 -21 525 -36 125 -113 247 -178
280 -15 8 -48 15 -73 15 -38 0 -51 -5 -79 -34z m144 -47 c35 -25 85 -103 109
-171 36 -103 41 -172 38 -536 l-3 -353 -152 147 -153 146 0 296 c0 163 5 326
11 361 20 128 71 165 150 110z"/>
</g>
</svg>